<?xml version="1.0" encoding="UTF-8"?>
<svg id="Layer_1" data-name="Layer 1" xmlns="http://www.w3.org/2000/svg" xmlns:xlink="http://www.w3.org/1999/xlink" viewBox="0 0 1809.85 732.06">
  <defs>
    <style>
      .cls-1 {
        filter: url(#drop-shadow-1);
      }

      .cls-2 {
        filter: url(#drop-shadow-3);
      }

      .cls-3 {
        filter: url(#drop-shadow-2);
      }

      .cls-4 {
        fill: #e3e6e8;
      }

      .cls-5 {
        stroke: #fff;
      }

      .cls-5, .cls-6, .cls-7, .cls-8, .cls-9, .cls-10, .cls-11 {
        fill: none;
        stroke-miterlimit: 10;
      }

      .cls-6 {
        stroke: #bab9ff;
      }

      .cls-6, .cls-7, .cls-8, .cls-10, .cls-11 {
        stroke-width: 15px;
      }

      .cls-12 {
        fill: #f9aac2;
      }

      .cls-13 {
        fill: #fff;
      }

      .cls-7 {
        stroke: #6ae8dc;
      }

      .cls-8 {
        stroke: #e8887a;
      }

      .cls-9 {
        stroke: #000;
        stroke-width: 1.25px;
      }

      .cls-10 {
        stroke: #fff966;
      }

      .cls-14 {
        fill: #000102;
      }

      .cls-15 {
        fill: #f291bf;
      }

      .cls-16 {
        fill: #ffe30f;
      }

      .cls-11 {
        stroke: #ffc873;
      }

      .cls-17 {
        fill: #f2f3f4;
      }

      .cls-18 {
        fill: #bef4c7;
      }
    </style>
    <filter id="drop-shadow-1" x="517.84" y="293.11" width="675.54" height="196.13" filterUnits="userSpaceOnUse">
      <feOffset dx="8" dy="7"/>
      <feGaussianBlur result="blur" stdDeviation="0"/>
      <feFlood flood-color="#000" flood-opacity="1"/>
      <feComposite in2="blur" operator="in"/>
      <feComposite in="SourceGraphic"/>
    </filter>
    <filter id="drop-shadow-2" x="368.38" y="89.07" width="1035.74" height="178.45" filterUnits="userSpaceOnUse">
      <feOffset dx="8" dy="7"/>
      <feGaussianBlur result="blur-2" stdDeviation="0"/>
      <feFlood flood-color="#000" flood-opacity="1"/>
      <feComposite in2="blur-2" operator="in"/>
      <feComposite in="SourceGraphic"/>
    </filter>
    <filter id="drop-shadow-3" x="517.51" y="293.18" width="675.54" height="196.13" filterUnits="userSpaceOnUse">
      <feOffset dx="8" dy="7"/>
      <feGaussianBlur result="blur-3" stdDeviation="0"/>
      <feFlood flood-color="#000" flood-opacity="1"/>
      <feComposite in2="blur-3" operator="in"/>
      <feComposite in="SourceGraphic"/>
    </filter>
  </defs>
  <g>
    <g>
      <path class="cls-6" d="M398.78,445.52s36.58-146.67,177.87-68.02"/>
      <path class="cls-7" d="M388.85,442.73s38.51-169.64,198.42-75.88"/>
      <path class="cls-10" d="M372.78,442.53s44.86-188.01,224.1-85.7"/>
      <path class="cls-11" d="M356.34,438.47s49.49-207.4,247.22-94.54"/>
      <path class="cls-8" d="M342.54,438.51s54.89-230.01,274.16-104.85"/>
    </g>
    <g>
      <g>
        <ellipse class="cls-17" cx="384.05" cy="463.9" rx="69.58" ry="45.34" transform="translate(-28.91 25.54) rotate(-3.67)"/>
        <circle class="cls-17" cx="313.55" cy="451.81" r="34.54"/>
        <ellipse class="cls-17" cx="338.41" cy="472.91" rx="41.72" ry="45.34" transform="translate(-150.76 158.47) rotate(-21.68)"/>
        <ellipse class="cls-17" cx="351.48" cy="433.54" rx="24.93" ry="27.09" transform="translate(-27.03 23.39) rotate(-3.67)"/>
        <ellipse class="cls-17" cx="384.96" cy="423.39" rx="34.06" ry="37.01" transform="translate(-26.31 25.51) rotate(-3.67)"/>
        <ellipse class="cls-17" cx="432.81" cy="428.33" rx="30.46" ry="33.11" transform="translate(-26.53 28.59) rotate(-3.67)"/>
        <ellipse class="cls-17" cx="428.12" cy="461.8" rx="49.74" ry="45.34" transform="translate(-28.69 28.35) rotate(-3.67)"/>
      </g>
      <g>
        <circle class="cls-14" cx="397.45" cy="442.91" r="8.56"/>
        <path class="cls-5" d="M396.3,437.93c-1.18-.16-2.53.4-3.52,1.46-1.15,1.23-1.63,2.95-1.19,4.28"/>
      </g>
      <g>
        <circle class="cls-14" cx="348.69" cy="453.13" r="8.56"/>
        <path class="cls-5" d="M347.53,448.15c-1.18-.16-2.53.4-3.52,1.46-1.15,1.23-1.63,2.95-1.19,4.28"/>
      </g>
      <path class="cls-9" d="M366.59,476.34c3.38,2.02,9.32,2.47,15.57,1.14,7.24-1.54,13.73-5.23,16.13-9.23"/>
      <circle class="cls-12" cx="423.68" cy="454.23" r="3.69"/>
      <circle class="cls-12" cx="328.23" cy="473.25" r="3.69"/>
    </g>
  </g>
  <g>
    <path d="M1170.54,211.78c-2.07.2-3.96-.07-5.43-1.59-1-1.03-1.46-2.34-1.64-3.74-.37-2.85,1.2-5.54,4.12-6.61-.38-.52-.75-1.05-1.14-1.55-1.1-1.45-2.22-2.88-3.32-4.33-.82-1.08-1.64-2.16-2.43-3.25-.31-.42-.25-.95.08-1.38.29-.38.78-.57,1.26-.4.85.3,1.68.64,2.52.96,1.15.45,2.29.91,3.43,1.36,1.11.44,2.22.88,3.33,1.34.26.11.45.08.71-.03,1.02-.44,2.06-.82,3.08-1.25.2-.08.42-.23.54-.41.84-1.33,1.83-2.5,3.33-3.1.56-.23,1.18-.34,1.78-.45.18-.03.42.08.58.19.85.64,1.22,1.55,1.37,2.56.06.41.07.82.07,1.24,0,.21.07.26.28.34,1.02.37,1.98.82,2.68,1.72.59.75.85,1.6.8,2.54-.01.25.06.37.28.5,1.31.8,2.05,1.96,2.01,3.53-.01.45-.16.9-.2,1.35-.02.2.02.48.15.61,1.03,1.11,1.48,2.39.99,3.84-.24.71-.72,1.35-1.12,1.99-.13.21-.18.36-.08.6.55,1.28.61,2.56-.02,3.83-.52,1.04-1.31,1.86-2.26,2.51-.39.26-.81.49-1.18.77-.16.13-.27.35-.34.56-.13.41-.38.58-.8.65-2.22.4-4.44.82-6.66,1.23-1.92.36-3.83.72-5.75,1.07-1.64.3-3.29.59-4.93.88-.52.09-.63-.03-.75-.56-.22-1.01-.2-2,.41-2.85.41-.56.98-1.02,1.51-1.49,1.03-.92,1.93-1.95,2.74-3.19ZM1166.81,218.8c.84-.15,1.64-.29,2.44-.44,2.96-.55,5.91-1.09,8.87-1.64,1.77-.33,3.53-.68,5.31-.98.37-.06.49-.25.59-.53.75-1.97,1.22-4,1.4-6.1.24-2.88-.1-5.7-.89-8.46-.67-2.33-1.62-4.56-2.92-6.62-.11-.17-.16-.43-.13-.64.07-.56.23-1.11.27-1.66.08-1.13.02-2.24-.78-3.17-.14-.16-.25-.23-.47-.18-1.88.38-3.13,1.57-4.02,3.18-.21.38-.48.6-.88.69-1.44.32-2.78.87-3.96,1.75-1.93,1.44-2.89,3.37-2.69,5.79.05.57-.11.79-.65.92-1.63.41-2.79,1.41-3.47,2.96-.56,1.29-.51,2.59-.08,3.9.56,1.67,1.61,2.79,3.4,3.13,1.05.2,2.08.06,3.12-.07.21-.03.53.05.63.19.1.15.08.49-.03.66-1.06,1.79-2.28,3.46-3.99,4.7-.87.63-1.24,1.49-1.09,2.62ZM1187.62,200.86c.71-2.05-.74-3.83-3.4-4.23.44,1.02.87,2.04,1.32,3.05.04.1.16.19.26.24.61.32,1.22.63,1.82.94ZM1186.55,207.22c.03,2.28-.3,4.44-.93,6.6,2.42-1.53,3.21-4.08.93-6.6ZM1169.5,192.97c-.73,1.06-1.44,2.1-2.15,3.14-.19.28-.53.56-.52.83.02.29.36.57.57.85.16.21.31.43.47.64.3-2.05,1.27-3.66,2.8-5.01-.44-.17-.79-.3-1.16-.45ZM1166.06,196.06c.8-1.17,1.59-2.31,2.4-3.49-.5-.2-.94-.38-1.41-.57-.62.9-1.23,1.77-1.82,2.65-.05.08-.07.25-.02.32.25.36.53.7.85,1.1ZM1185.43,195.74c.18-1.33-1.09-2.66-2.71-3q-.24.67.09,1.27c.22.4.44.8.68,1.19.05.08.13.19.21.21.57.12,1.14.22,1.74.33ZM1166,191.59c-.43-.18-.82-.36-1.22-.49-.09-.03-.27.04-.33.12-.31.42-.6.85-.88,1.29-.05.07-.04.24.01.31.26.35.54.69.83,1.06.52-.76,1.04-1.5,1.59-2.29ZM1163.55,190.61c-.57-.23-1.09-.45-1.63-.65-.09-.03-.22.02-.33.04.01.08,0,.18.04.24.37.49.74.98,1.14,1.49.27-.39.51-.74.78-1.12Z"/>
    <path class="cls-13" d="M1166.81,218.8c-.15-1.13.22-1.99,1.09-2.62,1.71-1.24,2.93-2.91,3.99-4.7.1-.18.13-.51.03-.66-.1-.14-.42-.22-.63-.19-1.04.14-2.07.27-3.12.07-1.78-.34-2.84-1.46-3.4-3.13-.44-1.31-.49-2.61.08-3.9.68-1.55,1.84-2.55,3.47-2.96.54-.14.7-.36.65-.92-.21-2.42.75-4.35,2.69-5.79,1.18-.88,2.52-1.43,3.96-1.75.39-.09.66-.3.88-.69.89-1.61,2.13-2.8,4.02-3.18.22-.04.33.02.47.18.79.93.85,2.04.78,3.17-.04.56-.21,1.11-.27,1.66-.02.21.02.46.13.64,1.3,2.06,2.25,4.29,2.92,6.62.79,2.76,1.13,5.58.89,8.46-.18,2.1-.65,4.13-1.4,6.1-.11.28-.23.47-.59.53-1.77.3-3.54.65-5.31.98-2.96.55-5.91,1.1-8.87,1.64-.8.15-1.61.29-2.44.44ZM1177.39,200.32c0-.38.04-.77,0-1.15-.04-.42-.49-.62-.79-.33-.14.14-.19.44-.19.66,0,.9-.47,1.54-1.28,1.77-.81.23-1.88-.27-2.09-1.25-.07-.32-.4-.56-.65-.49-.3.09-.44.31-.38.62.14.73.53,1.32,1.15,1.73,1.61,1.07,3.67.25,4.22-1.55ZM1177.51,191.75c-.03.23-.12.46-.08.67.03.16.2.36.35.42.12.05.38-.04.46-.16.15-.23.24-.51.32-.78.21-.78.65-1.13,1.44-1.09.32.01.55-.11.61-.43.06-.31-.16-.58-.51-.6-.33-.01-.67,0-.98.1-.9.29-1.37.98-1.6,1.86Z"/>
    <path class="cls-13" d="M1187.62,200.86c-.6-.31-1.22-.62-1.82-.94-.1-.05-.22-.14-.26-.24-.45-1.01-.88-2.02-1.32-3.05,2.66.4,4.11,2.18,3.4,4.23Z"/>
    <path class="cls-13" d="M1186.55,207.22c2.27,2.52,1.49,5.07-.93,6.6.63-2.16.96-4.32.93-6.6Z"/>
    <path class="cls-13" d="M1169.5,192.97c.37.14.72.28,1.16.45-1.53,1.34-2.49,2.95-2.8,5.01-.16-.21-.31-.42-.47-.64-.2-.28-.55-.55-.57-.85-.01-.27.33-.55.52-.83.71-1.04,1.43-2.08,2.15-3.14Z"/>
    <path class="cls-13" d="M1166.06,196.06c-.31-.4-.59-.74-.85-1.1-.05-.07-.03-.24.02-.32.59-.88,1.2-1.75,1.82-2.65.47.19.91.37,1.41.57-.81,1.18-1.6,2.33-2.4,3.49Z"/>
    <path class="cls-13" d="M1185.43,195.74c-.6-.11-1.17-.21-1.74-.33-.08-.02-.16-.13-.21-.21-.23-.39-.45-.79-.68-1.19q-.34-.6-.09-1.27c1.63.34,2.89,1.68,2.71,3Z"/>
    <path class="cls-13" d="M1166,191.59c-.55.79-1.07,1.54-1.59,2.29-.3-.37-.58-.71-.83-1.06-.05-.07-.06-.24-.01-.31.28-.44.57-.87.88-1.29.06-.08.24-.15.33-.12.4.14.79.31,1.22.49Z"/>
    <path class="cls-13" d="M1163.55,190.61c-.27.39-.51.74-.78,1.12-.39-.51-.77-.99-1.14-1.49-.04-.06-.03-.16-.04-.24.11-.02.24-.07.33-.04.54.2,1.07.42,1.63.65Z"/>
    <path d="M1177.39,200.32c-.55,1.8-2.61,2.62-4.22,1.55-.62-.41-1.01-1-1.15-1.73-.06-.31.08-.53.38-.62.25-.07.58.17.65.49.2.98,1.28,1.49,2.09,1.25.81-.23,1.28-.87,1.28-1.77,0-.22.04-.52.19-.66.31-.29.75-.09.79.33.04.38,0,.77,0,1.15Z"/>
    <path d="M1177.51,191.75c.23-.89.71-1.57,1.6-1.86.31-.1.65-.11.98-.1.35.02.57.29.51.6-.06.32-.29.44-.61.43-.79-.04-1.23.31-1.44,1.09-.07.27-.16.55-.32.78-.07.11-.34.2-.46.16-.15-.06-.32-.26-.35-.42-.04-.21.05-.45.08-.67Z"/>
  </g>
  <g class="cls-1">
    <path class="cls-15" d="M629.8,465.29c-9.95,7.46-21.15,10.95-33.34,12.69-14.43,1.24-28.61,1.99-43.04,3.23-7.71.5-14.68,1-22.14,1-6.47.25-7.46-.75-7.96-7.21-.5-11.69-1.24-23.14-1.24-34.58-.25-18.41,0-37.32-.5-56.22-.75-24.88-2.24-49.76-3.48-74.88,0-1.24,0-2.99-.25-4.23-.25-3.98,2.74-8.46,6.22-8.96,21.89-3.23,82.1-9.95,101,19.65,9.45,14.68,10.45,32.34,4.48,49.01-2.24,6.72-6.97,12.69-11.19,19.41,28.86,15.67,38.56,61.2,11.44,81.1ZM593.73,353.09c0-14.43-20.65-15.42-30.35-13.43.25,4.97,1.99,13.93,1.24,25.87,9.7,1.99,29.11,0,29.11-12.44ZM583.78,436.68c9.45-1,24.63-8.21,15.18-18.66-6.97-8.71-22.89-9.21-32.84-8.46v27.12c6.72,0,11.94.5,17.66,0Z"/>
    <path class="cls-15" d="M713.89,305.57c-2.24,51.75-3.23,102.25-3.23,153,0,4.23.25,8.21.25,11.69,0,7.96-1.74,10.7-9.45,10.95-9.2.25-18.91.25-27.86.25-5.72,0-6.22-.5-6.47-6.47-3.23-55.98-3.98-109.71-5.97-163.2v-3.73c.25-8.71,1.49-9.95,10.2-9.95,15.67,0,25.13-1,35.08-.5,6.72,0,7.46,1.49,7.46,7.96Z"/>
    <path class="cls-15" d="M778.32,476.98c-14.43,1.99-28.11,2.49-42.04,1.74-5.72,0-6.97-1.24-7.21-6.72-.75-7.21-.75-14.43-.75-21.89-.25-18.41,0-36.82-.25-55.48-.25-25.13-1-50.01-1.49-74.88,0-6.22-.25-6.47,5.97-7.21,4.48-.75,9.7-.25,14.68-.25,7.46,0,15.67.25,23.38.5,19.41.25,16.67,1.99,22.14,14.68,10.95,22.14,19.65,44.53,32.09,63.94,0-8.21.5-14.68,0-20.9-.75-20.15-1.99-39.56-2.74-59.46-.25-4.73.5-5.97,5.22-6.22h38.56c3.98,0,5.22,1.99,5.22,5.97v19.41c-.5,39.81-1.24,80.36-1.74,120.41,0,6.47.25,13.19.25,20.15,0,5.72-1.24,6.47-6.47,6.72-8.96,0-17.91-1-26.37.25-8.71,1.74-12.44-1.99-16.42-8.96-12.19-24.38-25.38-48.01-38.56-72.4-.75-1.99-1.74-3.48-3.48-5.72h-1.24c1,29.6,1.24,57.97,1.24,86.33Z"/>
    <path class="cls-15" d="M944.26,399.61c-1.49-7.21,0-14.93-.5-22.14.5-2.99,2.99-3.73,6.22-3.73,26.37,0,37.32-1,48.26-1.49.75,0,1,0,1.74-.25,9.95-.25,11.94.75,11.69,11.44-.75,14.68.25,27.12-.75,41.55-8.71,58.46-92.79,66.92-116.18,18.41-24.38-47.27-13.68-136.33,46.27-147.77,11.2-2.24,22.14-1,32.84,1.74,26.62,8.71,30.6,25.87,32.09,50.75.5,7.22-1,9.45-7.96,10.2-9.95.5-19.65.25-29.85.5-2.99,0-4.23-1.74-4.48-4.98-1.24-5.97-3.23-10.7-10.2-12.69-7.21-1.24-13.19,1.49-17.91,6.72-11.44,12.69-15.42,67.42,5.72,74.88,11.94,4.48,27.86-6.97,23.14-26.12-6.22.75-14.18,2.24-20.15,2.99Z"/>
    <path class="cls-15" d="M1061.93,310.55c14.43-11.69,31.59-17.91,50-16.17,19.9,1.24,36.82,10.45,50.25,25.38,36.32,41.8,28.61,110.71-13.68,143.3-14.18,10.7-30.35,16.67-48.01,15.42-19.4-1-36.57-9.21-50.25-23.88-16.67-18.91-24.13-40.8-24.38-69.41.75-27.86,11.44-54.48,36.07-74.63ZM1080.84,360.06c-6.72,18.66-4.73,39.56,4.48,57.22,1.99,4.73,5.72,9.2,9.7,12.94,8.96,8.21,21.15,7.96,29.85-.5,3.73-3.48,6.22-6.97,8.71-11.69,8.21-15.67,8.71-32.84,4.73-49.01-8.46-37.07-42.79-47.77-57.47-8.96Z"/>
  </g>
  <path class="cls-16" d="M342.97,225.23c-1.79.58-3.76,0-4.95-1.46l-11.42-14.07c-.41-.5-1.01-.81-1.65-.84l-18.1-.96c-2.51-.13-4.44-2.28-4.31-4.8.07-1.29.68-2.48,1.68-3.29l14.07-11.42c.5-.41.81-1.01.84-1.65l.95-17.97c.07-1.72,1.08-3.27,2.64-4.02,1.9-.88,4.15-.36,5.46,1.26l11.42,14.07c.41.5,1.01.81,1.65.84l18.1.96c2.51.13,4.44,2.28,4.31,4.8-.07,1.29-.68,2.48-1.68,3.29l-14.07,11.42c-.5.41-.81,1.01-.84,1.65l-.96,18.1c-.1,1.88-1.35,3.51-3.14,4.09Z"/>
  <path class="cls-16" d="M287.54,298.55c-1.63,0-3.1-.97-3.69-2.44l-4.54-11.39c-.2-.5-.61-.9-1.13-1.09l-11.8-4.38c-2.04-.76-3.05-2.96-2.27-4.93.4-1.01,1.22-1.8,2.27-2.19l11.8-4.38c.52-.19.93-.59,1.13-1.09l4.5-11.29c.52-1.35,1.77-2.32,3.25-2.52,1.8-.21,3.51.78,4.16,2.41l4.54,11.39c.2.5.61.9,1.13,1.09l11.8,4.38c2.04.76,3.05,2.96,2.27,4.93-.4,1.01-1.22,1.8-2.27,2.19l-11.8,4.38c-.52.19-.93.59-1.13,1.09l-4.54,11.39c-.59,1.47-2.05,2.44-3.69,2.44Z"/>
  <g class="cls-3">
    <path class="cls-18" d="M443.67,143.87c-23.93-17.28-41.43,3.77-13.74,22.38,8.42,5.54,17.72,10.41,22.82,13.96,13.96,9.31,22.38,17.28,22.82,34.78.89,38.77-39.44,43.2-65.58,42.1-11.3-.66-22.16-2.22-33.01-4.21-3.54-.66-4.21-3.77-4.21-7.09-1.77-17.95-3.1-28.58-3.1-42.54,13.07,5.1,35.67,12.63,50.96,9.31,9.08-1.77,9.08-11.52-5.54-19.72-12.41-7.31-34.56-20.38-41.43-32.79-4.87-8.86-6.43-19.05-4.43-28.8,12.19-58.27,86.19-38.33,111.89-10.19,1.77,1.77,0,6.65-1.77,9.08-5.32,8.64-10.86,17.72-16.62,27.03-8.42-6.2-11.52-7.75-19.05-13.29Z"/>
    <path class="cls-18" d="M535.17,219.42c-.66,10.86-1.11,21.27-1.55,32.57-.44,5.32-1.33,6.2-6.87,6.43h-25.04c-5.54-.22-6.2-.89-6.2-5.98-1.33-36.34-2.22-70.68-2.88-105.02-.22-14.4-1.11-29.25-1.33-43.65,0-7.75.44-8.2,7.98-8.86,18.39-.44,37-1.11,55.61-1.33,9.97-.22,19.72,1.99,28.36,5.98,15.73,7.98,24.81,21.49,26.59,38.99.66,6.65-.22,13.52-1.77,19.94-7.75,31.02-50.52,36.78-71.56,33.46-.44,9.31-.89,18.39-1.33,27.47ZM538.27,158.27c12.19,1.55,29.91-.44,27.92-16.17-.66-5.98-4.43-9.97-10.86-10.41-5.1-.44-10.41-.22-16.17-.22,0,8.86-.89,16.84-.89,26.81Z"/>
    <path class="cls-18" d="M659.9,97.79c14.84-.89,30.13-1.33,44.98-2.22,3.99,0,5.76.66,5.54,4.43,0,10.63-1.11,21.27-1.55,32.13-.22,2.44-2.22,3.99-4.87,3.99-5.98-.44-11.96-.89-18.17-.89-5.76-.22-11.52,0-17.72,0-1.11,10.41-.44,20.83-.22,31.46h36.11c.89,8.2.22,15.07,0,20.38-.89,3.1-3.77,2.88-6.2,2.88-9.97.22-20.16.44-29.69.89v25.92c9.31-.22,25.48-2.66,35.01-3.1,5.32-.44,6.43.66,6.43,6.2v29.91c0,5.54-.44,5.76-6.2,6.2-15.51,0-31.02,0-46.53.22-7.53,0-15.29.66-22.82.66-5.32.22-5.98-.44-6.65-5.76-.66-55.61-1.55-103.69-1.55-151.55,11.74-.44,22.82-1.33,34.12-1.77Z"/>
    <path class="cls-18" d="M793.49,192.39c0-3.99,1.55-5.54,5.32-5.54,9.08-.22,18.17-.89,27.25-1.11,5.54,0,6.65,1.11,7.09,6.65,1.55,14.18.66,27.92-7.09,40.54-6.2,10.19-15.73,17.72-27.03,21.27-18.39,5.76-36.34,4.43-52.07-7.53-5.1-3.99-9.75-8.86-13.07-14.4-20.83-36.56-17.06-113.22,23.93-132.27,11.74-5.32,23.26-5.76,35.45-4.43,7.53,1.11,14.4,3.32,20.83,7.09,13.96,8.42,16.62,28.14,16.17,42.32,0,4.65-1.33,5.98-5.54,6.2-8.2.89-16.84,1.11-25.04,1.33-5.54.22-6.2-.44-7.75-5.98-2.44-10.41-12.19-14.18-21.05-7.09-6.2,5.54-9.31,12.63-10.41,20.83-1.33,11.08-.22,21.93,1.55,32.35,5.1,27.03,29.02,22.6,31.46-.22Z"/>
    <path class="cls-18" d="M919.34,148.74c-.22,24.37-.44,48.52-.44,72.89-.44,9.08-.66,17.72-.66,26.59,0,3.32-1.33,5.76-5.1,6.43-2.88.44-6.2.89-9.53.89-6.43.22-12.63.22-18.61,0-6.87-.22-7.98-1.33-8.2-7.53-.44-8.64-.89-16.84-1.11-24.81-.44-26.14-.89-51.84-1.55-77.32-.22-1.77-.44-3.54-.44-5.76-5.1,0-9.97-.22-15.07-.22h-7.53c-3.1-.22-5.32-1.55-5.54-5.32-.22-9.31-.44-19.28-.66-29.02,0-2.88,1.33-3.77,3.99-4.43,1.55-.22,2.66-.22,4.21-.22,31.68-.89,63.36-1.33,94.6-1.77h1.99c7.53,0,7.75.22,7.75,7.75.22,8.86.44,18.17.44,27.03,0,6.87-.66,6.87-6.87,6.65-10.19-.44-20.38,0-31.68,0v8.2Z"/>
    <path class="cls-18" d="M1055.37,192.39c10.19,15.29,20.6,30.8,31.02,45.86,1.11,1.11,1.77,1.99,2.44,3.54,2.88,4.21,2.44,6.2-2.66,7.09-11.08,2.66-22.38,5.32-34.12,7.31-1.33.44-3.54-.89-5.1-1.99-1.11-1.11-1.55-2.88-1.99-4.21-9.31-18.17-18.39-36.56-28.36-54.72-.22,7.09-.44,14.4-.67,21.71-.22,10.41-1.11,21.27-1.55,31.9-.22,6.42-1.33,7.75-7.75,7.75-7.75.22-15.07.22-22.6.22-6.87-.22-7.75-1.33-7.98-8.2-1.55-39.66-3.54-78.65-3.54-118.31,0-9.53-.89-19.5-.89-29.02,0-6.65.44-6.87,6.87-7.98,3.1-.44,5.98-1.11,9.08-1.11,13.52-.66,27.25-1.11,41.43-1.33,10.63-.22,21.27,1.77,31.24,5.32,43.43,15.95,39.66,85.52-9.08,89.51,1.77,2.88,2.88,4.43,4.21,6.65ZM1040.53,153.84c9.53-5.1,8.2-23.71-3.1-24.81-5.76-.44-11.74,0-17.95,0v26.81c7.53.66,14.62,1.77,21.05-1.99Z"/>
    <path class="cls-18" d="M1143.77,95.79c4.87,0,6.65,1.99,6.65,7.31.22,26.37.22,52.51.22,78.87.22,15.07-.67,33.23,15.07,36.11,21.93.67,22.38-19.05,22.82-36.11,0-25.7.89-51.62-.66-77.54-.44-4.65,1.11-6.87,5.32-6.87,9.53-.66,19.05-.66,28.14-.66,3.99,0,6.65,1.99,7.09,5.76,2.88,28.14,3.99,60.48,2.66,84.19-1.33,46.08-20.38,72.89-65.8,71.56-32.57-.89-55.17-13.52-59.82-45.86-3.54-38.33-1.11-77.77-.44-116.1,12.63-2.66,26.14-.89,38.77-.67Z"/>
    <path class="cls-18" d="M1350.48,99.12c2.66-5.32,5.76-8.2,11.3-8.2,4.87-.66,9.97-.89,15.07-1.11,3.54,0,7.53-.22,11.52-.66,5.76-.44,7.75.89,7.75,7.75-1.99,52.95-3.99,101.69-3.99,150.88-2.66,0-5.32.44-7.53.44-9.08.22-17.28.67-25.7.89-3.32.22-5.1-.89-5.32-3.99-.44-2.88-.44-5.32-.44-8.2-.67-24.15,1.55-50.52-.22-69.35-9.75,17.72-18.83,36.11-27.25,54.28-2.66,3.99-5.76,10.86-9.53,3.77-11.08-19.28-18.83-36.56-26.14-53.84-2.66,19.5-2.88,40.32-3.32,60.48,0,6.65.44,13.52.66,19.72s-1.33,7.98-7.53,8.2c-9.53.44-18.83.44-28.36,0-5.1,0-6.2-.89-6.2-6.2V105.76c0-2.44,0-4.65-.22-6.87,0-4.87,1.77-6.87,6.65-6.65,11.52,0,23.04.44,34.56.44q7.53.22,9.75,7.53c10.41,25.7,16.62,44.53,25.04,62.26,9.08-21.93,20.38-42.1,29.47-63.37Z"/>
  </g>
  <path class="cls-16" d="M1312.88,557.14c-5.2.03-9.87-3.18-11.73-8.04l-20.01-52.05c-.82-2.12-2.5-3.8-4.62-4.62l-52.06-20.03c-6.48-2.49-9.71-9.75-7.23-16.23,1.28-3.32,3.9-5.95,7.23-7.23l52.05-20.01c2.12-.82,3.8-2.5,4.62-4.62l20.03-52.06c2.49-6.48,9.75-9.71,16.23-7.23,3.32,1.28,5.95,3.9,7.23,7.23l20.01,52.05c.82,2.12,2.5,3.8,4.62,4.62l51.75,19.91c5.06,1.87,8.4,6.72,8.35,12.11-.08,5.11-3.26,9.65-8.04,11.46l-52.05,20.01c-2.12.82-3.8,2.5-4.62,4.62l-20.03,52.06c-1.85,4.86-6.52,8.06-11.73,8.04ZM1346.47,429.11h0Z"/>
  <path class="cls-16" d="M1252.6,370c-3.05,0-5.78-1.88-6.88-4.72l-8.47-22.02c-.37-.97-1.14-1.74-2.12-2.12l-22.02-8.47c-3.8-1.46-5.69-5.73-4.23-9.53.75-1.94,2.29-3.48,4.23-4.23l22.02-8.47c.97-.37,1.74-1.14,2.12-2.12l8.39-21.83c.96-2.62,3.3-4.49,6.06-4.86,3.35-.41,6.55,1.52,7.77,4.67l8.47,22.02c.37.97,1.14,1.74,2.12,2.12l22.02,8.47c3.8,1.46,5.69,5.73,4.23,9.53-.75,1.94-2.29,3.48-4.23,4.23l-22.02,8.47c-.97.37-1.74,1.14-2.12,2.12l-8.47,22.02c-1.1,2.85-3.83,4.72-6.88,4.72Z"/>
  <path class="cls-16" d="M1409.34,410.19c-3.33,0-6.31-2.05-7.5-5.15l-11.47-29.83c-.41-1.06-1.25-1.9-2.31-2.31l-29.83-11.47c-4.14-1.6-6.21-6.25-4.61-10.39.82-2.12,2.49-3.79,4.61-4.61l29.83-11.47c1.06-.41,1.9-1.25,2.31-2.31l11.39-29.62c1.06-2.85,3.6-4.89,6.62-5.31,3.66-.44,7.15,1.66,8.47,5.1l11.47,29.83c.41,1.06,1.25,1.9,2.31,2.31l29.83,11.47c4.14,1.6,6.21,6.25,4.61,10.39-.82,2.12-2.49,3.79-4.61,4.61l-29.83,11.47c-1.06.41-1.9,1.25-2.31,2.31l-11.47,29.83c-1.19,3.1-4.17,5.15-7.5,5.15Z"/>
  <path class="cls-16" d="M344.67,352.58c-1.21,0-2.3-.75-2.74-1.88l-3.37-8.77c-.15-.39-.45-.69-.84-.84l-8.77-3.37c-1.51-.58-2.27-2.28-1.68-3.8.3-.77.91-1.39,1.68-1.68l8.77-3.37c.39-.15.69-.45.84-.84l3.34-8.7c.38-1.04,1.31-1.79,2.42-1.94,1.34-.16,2.61.6,3.09,1.86l3.37,8.77c.15.39.45.69.84.84l8.77,3.37c1.51.58,2.27,2.28,1.68,3.8-.3.77-.91,1.39-1.68,1.68l-8.77,3.37c-.39.15-.69.45-.84.84l-3.37,8.77c-.44,1.13-1.53,1.88-2.74,1.88Z"/>
  <g>
    <g>
      <path class="cls-6" d="M398.45,445.59s36.58-146.67,177.87-68.02"/>
      <path class="cls-7" d="M386.2,444.35s38.51-169.64,198.42-75.88"/>
      <path class="cls-10" d="M370.12,440.79s44.86-188.01,224.1-85.7"/>
      <path class="cls-11" d="M356.01,438.54s49.49-207.4,247.22-94.54"/>
      <path class="cls-8" d="M339.89,436.77s54.89-230.01,274.16-104.85"/>
    </g>
    <g>
      <g>
        <ellipse class="cls-4" cx="383.72" cy="463.97" rx="69.58" ry="45.34" transform="translate(-28.92 25.52) rotate(-3.67)"/>
        <circle class="cls-4" cx="313.23" cy="451.88" r="34.54"/>
        <ellipse class="cls-4" cx="338.09" cy="472.98" rx="41.72" ry="45.34" transform="translate(-150.81 158.35) rotate(-21.68)"/>
        <ellipse class="cls-4" cx="351.16" cy="433.61" rx="24.93" ry="27.09" transform="translate(-27.04 23.37) rotate(-3.67)"/>
        <ellipse class="cls-4" cx="384.64" cy="423.46" rx="34.06" ry="37.01" transform="translate(-26.32 25.49) rotate(-3.67)"/>
        <ellipse class="cls-4" cx="432.48" cy="428.4" rx="30.46" ry="33.11" transform="translate(-26.54 28.57) rotate(-3.67)"/>
        <ellipse class="cls-4" cx="427.79" cy="461.87" rx="49.74" ry="45.34" transform="translate(-28.69 28.33) rotate(-3.67)"/>
      </g>
      <g>
        <circle class="cls-14" cx="397.13" cy="442.98" r="8.56"/>
        <path class="cls-5" d="M395.98,438c-1.18-.16-2.53.4-3.52,1.46-1.15,1.23-1.63,2.95-1.19,4.28"/>
      </g>
      <g>
        <circle class="cls-14" cx="348.36" cy="453.2" r="8.56"/>
        <path class="cls-5" d="M347.21,448.22c-1.18-.16-2.53.4-3.52,1.46-1.15,1.23-1.63,2.95-1.19,4.28"/>
      </g>
      <path class="cls-9" d="M366.27,476.41c3.38,2.02,9.32,2.47,15.57,1.14,7.24-1.54,13.73-5.23,16.13-9.23"/>
      <circle class="cls-12" cx="423.35" cy="454.3" r="3.69"/>
      <circle class="cls-12" cx="327.9" cy="473.32" r="3.69"/>
    </g>
  </g>
  <g class="cls-2">
    <path class="cls-15" d="M629.48,465.36c-9.95,7.46-21.15,10.95-33.34,12.69-14.43,1.24-28.61,1.99-43.04,3.23-7.71.5-14.68,1-22.14,1-6.47.25-7.46-.75-7.96-7.21-.5-11.69-1.24-23.14-1.24-34.58-.25-18.41,0-37.32-.5-56.22-.75-24.88-2.24-49.76-3.48-74.88,0-1.24,0-2.99-.25-4.23-.25-3.98,2.74-8.46,6.22-8.96,21.89-3.23,82.1-9.95,101,19.65,9.45,14.68,10.45,32.34,4.48,49.01-2.24,6.72-6.97,12.69-11.19,19.41,28.86,15.67,38.56,61.2,11.44,81.1ZM593.4,353.16c0-14.43-20.65-15.42-30.35-13.43.25,4.97,1.99,13.93,1.24,25.87,9.7,1.99,29.11,0,29.11-12.44ZM583.45,436.75c9.45-1,24.63-8.21,15.18-18.66-6.97-8.71-22.89-9.21-32.84-8.46v27.12c6.72,0,11.94.5,17.66,0Z"/>
    <path class="cls-15" d="M713.56,305.64c-2.24,51.75-3.23,102.25-3.23,153,0,4.23.25,8.21.25,11.69,0,7.96-1.74,10.7-9.45,10.95-9.2.25-18.91.25-27.86.25-5.72,0-6.22-.5-6.47-6.47-3.23-55.98-3.98-109.71-5.97-163.2v-3.73c.25-8.71,1.49-9.95,10.2-9.95,15.67,0,25.13-1,35.08-.5,6.72,0,7.46,1.49,7.46,7.96Z"/>
    <path class="cls-15" d="M778,477.05c-14.43,1.99-28.11,2.49-42.04,1.74-5.72,0-6.97-1.24-7.21-6.72-.75-7.21-.75-14.43-.75-21.89-.25-18.41,0-36.82-.25-55.48-.25-25.13-1-50-1.49-74.88,0-6.22-.25-6.47,5.97-7.21,4.48-.75,9.7-.25,14.68-.25,7.46,0,15.67.25,23.38.5,19.41.25,16.67,1.99,22.14,14.68,10.95,22.14,19.65,44.53,32.09,63.94,0-8.21.5-14.68,0-20.9-.75-20.15-1.99-39.56-2.74-59.46-.25-4.73.5-5.97,5.22-6.22h38.56c3.98,0,5.22,1.99,5.22,5.97v19.41c-.5,39.8-1.24,80.36-1.74,120.41,0,6.47.25,13.19.25,20.15,0,5.72-1.24,6.47-6.47,6.72-8.96,0-17.91-1-26.37.25-8.71,1.74-12.44-1.99-16.42-8.96-12.19-24.38-25.38-48.01-38.56-72.4-.75-1.99-1.74-3.48-3.48-5.72h-1.24c1,29.6,1.24,57.97,1.24,86.33Z"/>
    <path class="cls-15" d="M943.94,399.68c-1.49-7.21,0-14.93-.5-22.14.5-2.99,2.99-3.73,6.22-3.73,26.37,0,37.32-1,48.26-1.49.75,0,1,0,1.74-.25,9.95-.25,11.94.75,11.69,11.44-.75,14.68.25,27.12-.75,41.55-8.71,58.46-92.79,66.92-116.18,18.41-24.38-47.27-13.68-136.33,46.27-147.77,11.2-2.24,22.14-1,32.84,1.74,26.62,8.71,30.6,25.87,32.09,50.75.5,7.21-1,9.45-7.96,10.2-9.95.5-19.65.25-29.85.5-2.99,0-4.23-1.74-4.48-4.98-1.24-5.97-3.23-10.7-10.2-12.69-7.21-1.24-13.19,1.49-17.91,6.72-11.44,12.69-15.42,67.42,5.72,74.88,11.94,4.48,27.86-6.97,23.14-26.12-6.22.75-14.18,2.24-20.15,2.99Z"/>
    <path class="cls-15" d="M1061.61,310.62c14.43-11.69,31.59-17.91,50-16.17,19.9,1.24,36.82,10.45,50.25,25.38,36.32,41.79,28.61,110.71-13.68,143.3-14.18,10.7-30.35,16.67-48.01,15.42-19.4-1-36.57-9.21-50.25-23.88-16.67-18.91-24.13-40.8-24.38-69.41.75-27.86,11.44-54.48,36.07-74.63ZM1080.52,360.13c-6.72,18.66-4.73,39.56,4.48,57.22,1.99,4.73,5.72,9.2,9.7,12.94,8.96,8.21,21.15,7.96,29.85-.5,3.73-3.48,6.22-6.97,8.71-11.69,8.21-15.67,8.71-32.84,4.73-49.01-8.46-37.07-42.79-47.77-57.47-8.96Z"/>
  </g>
  <path class="cls-16" d="M342.64,225.3c-1.79.58-3.76,0-4.95-1.46l-11.42-14.07c-.41-.5-1.01-.81-1.65-.84l-18.1-.96c-2.51-.13-4.44-2.28-4.31-4.8.07-1.29.68-2.48,1.68-3.29l14.07-11.42c.5-.41.81-1.01.84-1.65l.95-17.97c.07-1.72,1.08-3.27,2.64-4.02,1.9-.88,4.15-.36,5.46,1.26l11.42,14.07c.41.5,1.01.81,1.65.84l18.1.96c2.51.13,4.44,2.28,4.31,4.8-.07,1.29-.68,2.48-1.68,3.29l-14.07,11.42c-.5.41-.81,1.01-.84,1.65l-.96,18.1c-.1,1.88-1.35,3.51-3.14,4.09Z"/>
  <path class="cls-16" d="M287.22,298.62c-1.63,0-3.1-.97-3.69-2.44l-4.54-11.39c-.2-.5-.61-.9-1.13-1.09l-11.8-4.38c-2.04-.76-3.05-2.96-2.27-4.93.4-1.01,1.22-1.8,2.27-2.19l11.8-4.38c.52-.19.93-.59,1.13-1.09l4.5-11.29c.52-1.35,1.77-2.32,3.25-2.52,1.8-.21,3.51.78,4.16,2.41l4.54,11.39c.2.5.61.9,1.13,1.09l11.8,4.38c2.04.76,3.05,2.96,2.27,4.93-.4,1.01-1.22,1.8-2.27,2.19l-11.8,4.38c-.52.19-.93.59-1.13,1.09l-4.54,11.39c-.59,1.47-2.05,2.44-3.69,2.44Z"/>
  <path class="cls-16" d="M1312.56,557.21c-5.2.03-9.87-3.18-11.73-8.04l-20.01-52.05c-.82-2.12-2.5-3.8-4.62-4.62l-52.06-20.03c-6.48-2.49-9.71-9.75-7.23-16.23,1.28-3.32,3.9-5.95,7.23-7.23l52.05-20.01c2.12-.82,3.8-2.5,4.62-4.62l20.03-52.06c2.49-6.48,9.75-9.71,16.23-7.23,3.32,1.28,5.95,3.9,7.23,7.23l20.01,52.05c.82,2.12,2.5,3.8,4.62,4.62l51.75,19.91c5.06,1.87,8.4,6.72,8.35,12.11-.08,5.11-3.26,9.65-8.04,11.46l-52.05,20.01c-2.12.82-3.8,2.5-4.62,4.62l-20.03,52.06c-1.85,4.86-6.52,8.06-11.73,8.04ZM1346.14,429.18h0Z"/>
  <path class="cls-16" d="M1252.27,370.07c-3.05,0-5.78-1.88-6.88-4.72l-8.47-22.02c-.37-.97-1.14-1.74-2.12-2.12l-22.02-8.47c-3.8-1.46-5.69-5.73-4.23-9.53.75-1.94,2.29-3.48,4.23-4.23l22.02-8.47c.97-.37,1.74-1.14,2.12-2.12l8.39-21.83c.96-2.62,3.3-4.49,6.06-4.86,3.35-.41,6.55,1.52,7.77,4.67l8.47,22.02c.37.97,1.14,1.74,2.12,2.12l22.02,8.47c3.8,1.46,5.69,5.73,4.23,9.53-.75,1.94-2.29,3.48-4.23,4.23l-22.02,8.47c-.97.37-1.74,1.14-2.12,2.12l-8.47,22.02c-1.1,2.85-3.83,4.72-6.88,4.72Z"/>
  <path class="cls-16" d="M1409.02,410.26c-3.33,0-6.31-2.05-7.5-5.15l-11.47-29.83c-.41-1.06-1.25-1.9-2.31-2.31l-29.83-11.47c-4.14-1.6-6.21-6.25-4.61-10.39.82-2.12,2.49-3.79,4.61-4.61l29.83-11.47c1.06-.41,1.9-1.25,2.31-2.31l11.39-29.62c1.06-2.85,3.6-4.89,6.62-5.31,3.66-.44,7.15,1.66,8.47,5.1l11.47,29.83c.41,1.06,1.25,1.9,2.31,2.31l29.83,11.47c4.14,1.6,6.21,6.25,4.61,10.39-.82,2.12-2.49,3.79-4.61,4.61l-29.83,11.47c-1.06.41-1.9,1.25-2.31,2.31l-11.47,29.83c-1.19,3.1-4.17,5.15-7.5,5.15Z"/>
  <path class="cls-16" d="M344.35,352.65c-1.21,0-2.3-.75-2.74-1.88l-3.37-8.77c-.15-.39-.45-.69-.84-.84l-8.77-3.37c-1.51-.58-2.27-2.28-1.68-3.8.3-.77.91-1.39,1.68-1.68l8.77-3.37c.39-.15.69-.45.84-.84l3.34-8.7c.38-1.04,1.31-1.79,2.42-1.94,1.34-.16,2.61.6,3.09,1.86l3.37,8.77c.15.39.45.69.84.84l8.77,3.37c1.51.58,2.27,2.28,1.68,3.8-.3.77-.91,1.39-1.68,1.68l-8.77,3.37c-.39.15-.69.45-.84.84l-3.37,8.77c-.44,1.13-1.53,1.88-2.74,1.88Z"/>
</svg>