<?xml version="1.0" encoding="UTF-8"?>
<svg id="Layer_1" data-name="Layer 1" xmlns="http://www.w3.org/2000/svg" xmlns:xlink="http://www.w3.org/1999/xlink" viewBox="0 0 1920 1080">
  <defs>
    <style>
      .cls-1 {
        fill: #e3e6e8;
      }

      .cls-2 {
        stroke: #fff;
      }

      .cls-2, .cls-3, .cls-4, .cls-5, .cls-6, .cls-7, .cls-8 {
        fill: none;
        stroke-miterlimit: 10;
      }

      .cls-3 {
        stroke: #bab9ff;
      }

      .cls-3, .cls-4, .cls-5, .cls-7, .cls-8 {
        stroke-width: 15px;
      }

      .cls-9 {
        fill: #f9aac2;
      }

      .cls-10 {
        fill: #fff;
      }

      .cls-4 {
        stroke: #6ae8dc;
      }

      .cls-5 {
        stroke: #e8887a;
      }

      .cls-6 {
        stroke: #000;
        stroke-width: 1.25px;
      }

      .cls-11 {
        filter: url(#drop-shadow-3);
      }

      .cls-11, .cls-12 {
        fill: #f291bf;
        font-size: 248.79px;
      }

      .cls-11, .cls-12, .cls-13 {
        font-family: Hello-Roti, 'Hello Roti';
      }

      .cls-12 {
        filter: url(#drop-shadow-1);
      }

      .cls-7 {
        stroke: #fff966;
      }

      .cls-14 {
        fill: #000102;
      }

      .cls-15 {
        fill: #ffe30f;
      }

      .cls-13 {
        fill: #bef4c7;
        filter: url(#drop-shadow-2);
        font-size: 221.55px;
      }

      .cls-8 {
        stroke: #ffc873;
      }

      .cls-16 {
        fill: #f2f3f4;
      }
    </style>
    <filter id="drop-shadow-1" filterUnits="userSpaceOnUse">
      <feOffset dx="8" dy="7"/>
      <feGaussianBlur result="blur" stdDeviation="0"/>
      <feFlood flood-color="#000" flood-opacity="1"/>
      <feComposite in2="blur" operator="in"/>
      <feComposite in="SourceGraphic"/>
    </filter>
    <filter id="drop-shadow-2" filterUnits="userSpaceOnUse">
      <feOffset dx="8" dy="7"/>
      <feGaussianBlur result="blur-2" stdDeviation="0"/>
      <feFlood flood-color="#000" flood-opacity="1"/>
      <feComposite in2="blur-2" operator="in"/>
      <feComposite in="SourceGraphic"/>
    </filter>
    <filter id="drop-shadow-3" filterUnits="userSpaceOnUse">
      <feOffset dx="8" dy="7"/>
      <feGaussianBlur result="blur-3" stdDeviation="0"/>
      <feFlood flood-color="#000" flood-opacity="1"/>
      <feComposite in2="blur-3" operator="in"/>
      <feComposite in="SourceGraphic"/>
    </filter>
  </defs>
  <g>
    <g>
      <path class="cls-3" d="M460.73,633.16s36.58-146.67,177.87-68.02"/>
      <path class="cls-4" d="M450.81,630.37s38.51-169.64,198.42-75.88"/>
      <path class="cls-7" d="M434.73,630.17s44.86-188.01,224.1-85.7"/>
      <path class="cls-8" d="M418.29,626.11s49.49-207.4,247.22-94.54"/>
      <path class="cls-5" d="M404.5,626.15s54.89-230.01,274.16-104.85"/>
    </g>
    <g>
      <g>
        <ellipse class="cls-16" cx="446" cy="651.54" rx="69.58" ry="45.34" transform="translate(-40.8 29.89) rotate(-3.67)"/>
        <circle class="cls-16" cx="375.5" cy="639.45" r="34.54"/>
        <ellipse class="cls-16" cx="400.36" cy="660.55" rx="41.72" ry="45.34" transform="translate(-215.7 194.63) rotate(-21.68)"/>
        <ellipse class="cls-16" cx="413.44" cy="621.18" rx="24.93" ry="27.09" transform="translate(-38.92 27.74) rotate(-3.67)"/>
        <ellipse class="cls-16" cx="446.91" cy="611.03" rx="34.06" ry="37.01" transform="translate(-38.2 29.86) rotate(-3.67)"/>
        <ellipse class="cls-16" cx="494.76" cy="615.97" rx="30.46" ry="33.11" transform="translate(-38.42 32.94) rotate(-3.67)"/>
        <ellipse class="cls-16" cx="490.07" cy="649.44" rx="49.74" ry="45.34" transform="translate(-40.57 32.71) rotate(-3.67)"/>
      </g>
      <g>
        <circle class="cls-14" cx="459.41" cy="630.55" r="8.56"/>
        <path class="cls-2" d="M458.25,625.57c-1.18-.16-2.53.4-3.52,1.46-1.15,1.23-1.63,2.95-1.19,4.28"/>
      </g>
      <g>
        <circle class="cls-14" cx="410.64" cy="640.77" r="8.56"/>
        <path class="cls-2" d="M409.49,635.79c-1.18-.16-2.53.4-3.52,1.46-1.15,1.23-1.63,2.95-1.19,4.28"/>
      </g>
      <path class="cls-6" d="M428.55,663.98c3.38,2.02,9.32,2.47,15.57,1.14,7.24-1.54,13.73-5.23,16.13-9.23"/>
      <circle class="cls-9" cx="485.63" cy="641.87" r="3.69"/>
      <circle class="cls-9" cx="390.18" cy="660.89" r="3.69"/>
    </g>
  </g>
  <g>
    <path d="M1232.49,399.41c-2.07.2-3.96-.07-5.43-1.59-1-1.03-1.46-2.34-1.64-3.74-.37-2.85,1.2-5.54,4.12-6.61-.38-.52-.75-1.05-1.14-1.55-1.1-1.45-2.22-2.88-3.32-4.33-.82-1.08-1.64-2.16-2.43-3.25-.31-.42-.25-.95.08-1.38.29-.38.78-.57,1.26-.4.85.3,1.68.64,2.52.96,1.15.45,2.29.91,3.43,1.36,1.11.44,2.22.88,3.33,1.34.26.11.45.08.71-.03,1.02-.44,2.06-.82,3.08-1.25.2-.08.42-.23.54-.41.84-1.33,1.83-2.5,3.33-3.1.56-.23,1.18-.34,1.78-.45.18-.03.42.08.58.19.85.64,1.22,1.55,1.37,2.56.06.41.07.82.07,1.24,0,.21.07.26.28.34,1.02.37,1.98.82,2.68,1.72.59.75.85,1.6.8,2.54-.01.25.06.37.28.5,1.31.8,2.05,1.96,2.01,3.53-.01.45-.16.9-.2,1.35-.02.2.02.48.15.61,1.03,1.11,1.48,2.39.99,3.84-.24.71-.72,1.35-1.12,1.99-.13.21-.18.36-.08.6.55,1.28.61,2.56-.02,3.83-.52,1.04-1.31,1.86-2.26,2.51-.39.26-.81.49-1.18.77-.16.13-.27.35-.34.56-.13.41-.38.58-.8.65-2.22.4-4.44.82-6.66,1.23-1.92.36-3.83.72-5.75,1.07-1.64.3-3.29.59-4.93.88-.52.09-.63-.03-.75-.56-.22-1.01-.2-2,.41-2.85.41-.56.98-1.02,1.51-1.49,1.03-.92,1.93-1.95,2.74-3.19ZM1228.76,406.44c.84-.15,1.64-.29,2.44-.44,2.96-.55,5.91-1.09,8.87-1.64,1.77-.33,3.53-.68,5.31-.98.37-.06.49-.25.59-.53.75-1.97,1.22-4,1.4-6.1.24-2.88-.1-5.7-.89-8.46-.67-2.33-1.62-4.56-2.92-6.62-.11-.17-.16-.43-.13-.64.07-.56.23-1.11.27-1.66.08-1.13.02-2.24-.78-3.17-.14-.16-.25-.23-.47-.18-1.88.38-3.13,1.57-4.02,3.18-.21.38-.48.6-.88.69-1.44.32-2.78.87-3.96,1.75-1.93,1.44-2.89,3.37-2.69,5.79.05.57-.11.79-.65.92-1.63.41-2.79,1.41-3.47,2.96-.56,1.29-.51,2.59-.08,3.9.56,1.67,1.61,2.79,3.4,3.13,1.05.2,2.08.06,3.12-.07.21-.03.53.05.63.19.1.15.08.49-.03.66-1.06,1.79-2.28,3.46-3.99,4.7-.87.63-1.24,1.49-1.09,2.62ZM1249.58,388.5c.71-2.05-.74-3.83-3.4-4.23.44,1.02.87,2.04,1.32,3.05.04.1.16.19.26.24.61.32,1.22.63,1.82.94ZM1248.5,394.86c.03,2.28-.3,4.44-.93,6.6,2.42-1.53,3.21-4.08.93-6.6ZM1231.45,380.61c-.73,1.06-1.44,2.1-2.15,3.14-.19.28-.53.56-.52.83.02.29.36.57.57.85.16.21.31.43.47.64.3-2.05,1.27-3.66,2.8-5.01-.44-.17-.79-.3-1.16-.45ZM1228.01,383.69c.8-1.17,1.59-2.31,2.4-3.49-.5-.2-.94-.38-1.41-.57-.62.9-1.23,1.77-1.82,2.65-.05.08-.07.25-.02.32.25.36.53.7.85,1.1ZM1247.39,383.38c.18-1.33-1.09-2.66-2.71-3q-.24.67.09,1.27c.22.4.44.8.68,1.19.05.08.13.19.21.21.57.12,1.14.22,1.74.33ZM1227.96,379.23c-.43-.18-.82-.36-1.22-.49-.09-.03-.27.04-.33.12-.31.42-.6.85-.88,1.29-.05.07-.04.24.01.31.26.35.54.69.83,1.06.52-.76,1.04-1.5,1.59-2.29ZM1225.5,378.25c-.57-.23-1.09-.45-1.63-.65-.09-.03-.22.02-.33.04.01.08,0,.18.04.24.37.49.74.98,1.14,1.49.27-.39.51-.74.78-1.12Z"/>
    <path class="cls-10" d="M1228.76,406.44c-.15-1.13.22-1.99,1.09-2.62,1.71-1.24,2.93-2.91,3.99-4.7.1-.18.13-.51.03-.66-.1-.14-.42-.22-.63-.19-1.04.14-2.07.27-3.12.07-1.78-.34-2.84-1.46-3.4-3.13-.44-1.31-.49-2.61.08-3.9.68-1.55,1.84-2.55,3.47-2.96.54-.14.7-.36.65-.92-.21-2.42.75-4.35,2.69-5.79,1.18-.88,2.52-1.43,3.96-1.75.39-.09.66-.3.88-.69.89-1.61,2.13-2.8,4.02-3.18.22-.04.33.02.47.18.79.93.85,2.04.78,3.17-.04.56-.21,1.11-.27,1.66-.02.21.02.46.13.64,1.3,2.06,2.25,4.29,2.92,6.62.79,2.76,1.13,5.58.89,8.46-.18,2.1-.65,4.13-1.4,6.1-.11.28-.23.47-.59.53-1.77.3-3.54.65-5.31.98-2.96.55-5.91,1.1-8.87,1.64-.8.15-1.61.29-2.44.44ZM1239.34,387.96c0-.38.04-.77,0-1.15-.04-.42-.49-.62-.79-.33-.14.14-.19.44-.19.66,0,.9-.47,1.54-1.28,1.77-.81.23-1.88-.27-2.09-1.25-.07-.32-.4-.56-.65-.49-.3.09-.44.31-.38.62.14.73.53,1.32,1.15,1.73,1.61,1.07,3.67.25,4.22-1.55ZM1239.46,379.39c-.03.23-.12.46-.08.67.03.16.2.36.35.42.12.05.38-.04.46-.16.15-.23.24-.51.32-.78.21-.78.65-1.13,1.44-1.09.32.01.55-.11.61-.43.06-.31-.16-.58-.51-.6-.33-.01-.67,0-.98.1-.9.29-1.37.98-1.6,1.86Z"/>
    <path class="cls-10" d="M1249.58,388.5c-.6-.31-1.22-.62-1.82-.94-.1-.05-.22-.14-.26-.24-.45-1.01-.88-2.02-1.32-3.05,2.66.4,4.11,2.18,3.4,4.23Z"/>
    <path class="cls-10" d="M1248.5,394.86c2.27,2.52,1.49,5.07-.93,6.6.63-2.16.96-4.32.93-6.6Z"/>
    <path class="cls-10" d="M1231.45,380.61c.37.14.72.28,1.16.45-1.53,1.34-2.49,2.95-2.8,5.01-.16-.21-.31-.42-.47-.64-.2-.28-.55-.55-.57-.85-.01-.27.33-.55.52-.83.71-1.04,1.43-2.08,2.15-3.14Z"/>
    <path class="cls-10" d="M1228.01,383.69c-.31-.4-.59-.74-.85-1.1-.05-.07-.03-.24.02-.32.59-.88,1.2-1.75,1.82-2.65.47.19.91.37,1.41.57-.81,1.18-1.6,2.33-2.4,3.49Z"/>
    <path class="cls-10" d="M1247.39,383.38c-.6-.11-1.17-.21-1.74-.33-.08-.02-.16-.13-.21-.21-.23-.39-.45-.79-.68-1.19q-.34-.6-.09-1.27c1.63.34,2.89,1.68,2.71,3Z"/>
    <path class="cls-10" d="M1227.96,379.23c-.55.79-1.07,1.54-1.59,2.29-.3-.37-.58-.71-.83-1.06-.05-.07-.06-.24-.01-.31.28-.44.57-.87.88-1.29.06-.08.24-.15.33-.12.4.14.79.31,1.22.49Z"/>
    <path class="cls-10" d="M1225.5,378.25c-.27.39-.51.74-.78,1.12-.39-.51-.77-.99-1.14-1.49-.04-.06-.03-.16-.04-.24.11-.02.24-.07.33-.04.54.2,1.07.42,1.63.65Z"/>
    <path d="M1239.34,387.96c-.55,1.8-2.61,2.62-4.22,1.55-.62-.41-1.01-1-1.15-1.73-.06-.31.08-.53.38-.62.25-.07.58.17.65.49.2.98,1.28,1.49,2.09,1.25.81-.23,1.28-.87,1.28-1.77,0-.22.04-.52.19-.66.31-.29.75-.09.79.33.04.38,0,.77,0,1.15Z"/>
    <path d="M1239.46,379.39c.23-.89.71-1.57,1.6-1.86.31-.1.65-.11.98-.1.35.02.57.29.51.6-.06.32-.29.44-.61.43-.79-.04-1.23.31-1.44,1.09-.07.27-.16.55-.32.78-.07.11-.34.2-.46.16-.15-.06-.32-.26-.35-.42-.04-.21.05-.45.08-.67Z"/>
  </g>
  <text class="cls-12" transform="translate(574.08 669.1)"><tspan x="0" y="0">Bingo</tspan></text>
  <path class="cls-15" d="M404.92,412.87c-1.79.58-3.76,0-4.95-1.46l-11.42-14.07c-.41-.5-1.01-.81-1.65-.84l-18.1-.96c-2.51-.13-4.44-2.28-4.31-4.8.07-1.29.68-2.48,1.68-3.29l14.07-11.42c.5-.41.81-1.01.84-1.65l.95-17.97c.07-1.72,1.08-3.27,2.64-4.02,1.9-.88,4.15-.36,5.46,1.26l11.42,14.07c.41.5,1.01.81,1.65.84l18.1.96c2.51.13,4.44,2.28,4.31,4.8-.07,1.29-.68,2.48-1.68,3.29l-14.07,11.42c-.5.41-.81,1.01-.84,1.65l-.96,18.1c-.1,1.88-1.35,3.51-3.14,4.09Z"/>
  <path class="cls-15" d="M349.49,486.19c-1.63,0-3.1-.97-3.69-2.44l-4.54-11.39c-.2-.5-.61-.9-1.13-1.09l-11.8-4.38c-2.04-.76-3.05-2.96-2.27-4.93.4-1.01,1.22-1.8,2.27-2.19l11.8-4.38c.52-.19.93-.59,1.13-1.09l4.5-11.29c.52-1.35,1.77-2.32,3.25-2.52,1.8-.21,3.51.78,4.16,2.41l4.54,11.39c.2.5.61.9,1.13,1.09l11.8,4.38c2.04.76,3.05,2.96,2.27,4.93-.4,1.01-1.22,1.8-2.27,2.19l-11.8,4.38c-.52.19-.93.59-1.13,1.09l-4.54,11.39c-.59,1.47-2.05,2.44-3.69,2.44Z"/>
  <text class="cls-13" transform="translate(425.64 446.94)"><tspan x="0" y="0">spectrum</tspan></text>
  <path class="cls-15" d="M1374.84,744.78c-5.2.03-9.87-3.18-11.73-8.04l-20.01-52.05c-.82-2.12-2.5-3.8-4.62-4.62l-52.06-20.03c-6.48-2.49-9.71-9.75-7.23-16.23,1.28-3.32,3.9-5.95,7.23-7.23l52.05-20.01c2.12-.82,3.8-2.5,4.62-4.62l20.03-52.06c2.49-6.48,9.75-9.71,16.23-7.23,3.32,1.28,5.95,3.9,7.23,7.23l20.01,52.05c.82,2.12,2.5,3.8,4.62,4.62l51.75,19.91c5.06,1.87,8.4,6.72,8.35,12.11-.08,5.11-3.26,9.65-8.04,11.46l-52.05,20.01c-2.12.82-3.8,2.5-4.62,4.62l-20.03,52.06c-1.85,4.86-6.52,8.06-11.73,8.04ZM1408.42,616.75h0Z"/>
  <path class="cls-15" d="M1314.55,557.64c-3.05,0-5.78-1.88-6.88-4.72l-8.47-22.02c-.37-.97-1.14-1.74-2.12-2.12l-22.02-8.47c-3.8-1.46-5.69-5.73-4.23-9.53.75-1.94,2.29-3.48,4.23-4.23l22.02-8.47c.97-.37,1.74-1.14,2.12-2.12l8.39-21.83c.96-2.62,3.3-4.49,6.06-4.86,3.35-.41,6.55,1.52,7.77,4.67l8.47,22.02c.37.97,1.14,1.74,2.12,2.12l22.02,8.47c3.8,1.46,5.69,5.73,4.23,9.53-.75,1.94-2.29,3.48-4.23,4.23l-22.02,8.47c-.97.37-1.74,1.14-2.12,2.12l-8.47,22.02c-1.1,2.85-3.83,4.72-6.88,4.72Z"/>
  <path class="cls-15" d="M1471.3,597.83c-3.33,0-6.31-2.05-7.5-5.15l-11.47-29.83c-.41-1.06-1.25-1.9-2.31-2.31l-29.83-11.47c-4.14-1.6-6.21-6.25-4.61-10.39.82-2.12,2.49-3.79,4.61-4.61l29.83-11.47c1.06-.41,1.9-1.25,2.31-2.31l11.39-29.62c1.06-2.85,3.6-4.89,6.62-5.31,3.66-.44,7.15,1.66,8.47,5.1l11.47,29.83c.41,1.06,1.25,1.9,2.31,2.31l29.83,11.47c4.14,1.6,6.21,6.25,4.61,10.39-.82,2.12-2.49,3.79-4.61,4.61l-29.83,11.47c-1.06.41-1.9,1.25-2.31,2.31l-11.47,29.83c-1.19,3.1-4.17,5.15-7.5,5.15Z"/>
  <path class="cls-15" d="M406.62,540.22c-1.21,0-2.3-.75-2.74-1.88l-3.37-8.77c-.15-.39-.45-.69-.84-.84l-8.77-3.37c-1.51-.58-2.27-2.28-1.68-3.8.3-.77.91-1.39,1.68-1.68l8.77-3.37c.39-.15.69-.45.84-.84l3.34-8.7c.38-1.04,1.31-1.79,2.42-1.94,1.34-.16,2.61.6,3.09,1.86l3.37,8.77c.15.39.45.69.84.84l8.77,3.37c1.51.58,2.27,2.28,1.68,3.8-.3.77-.91,1.39-1.68,1.68l-8.77,3.37c-.39.15-.69.45-.84.84l-3.37,8.77c-.44,1.13-1.53,1.88-2.74,1.88Z"/>
  <g>
    <g>
      <path class="cls-3" d="M460.41,633.23s36.58-146.67,177.87-68.02"/>
      <path class="cls-4" d="M448.16,631.99s38.51-169.64,198.42-75.88"/>
      <path class="cls-7" d="M432.08,628.43s44.86-188.01,224.1-85.7"/>
      <path class="cls-8" d="M417.97,626.18s49.49-207.4,247.22-94.54"/>
      <path class="cls-5" d="M401.84,624.41s54.89-230.01,274.16-104.85"/>
    </g>
    <g>
      <g>
        <ellipse class="cls-1" cx="445.68" cy="651.61" rx="69.58" ry="45.34" transform="translate(-40.8 29.87) rotate(-3.67)"/>
        <circle class="cls-1" cx="375.18" cy="639.52" r="34.54"/>
        <ellipse class="cls-1" cx="400.04" cy="660.62" rx="41.72" ry="45.34" transform="translate(-215.75 194.51) rotate(-21.68)"/>
        <ellipse class="cls-1" cx="413.11" cy="621.25" rx="24.93" ry="27.09" transform="translate(-38.92 27.72) rotate(-3.67)"/>
        <ellipse class="cls-1" cx="446.59" cy="611.1" rx="34.06" ry="37.01" transform="translate(-38.21 29.84) rotate(-3.67)"/>
        <ellipse class="cls-1" cx="494.44" cy="616.04" rx="30.46" ry="33.11" transform="translate(-38.42 32.92) rotate(-3.67)"/>
        <ellipse class="cls-1" cx="489.74" cy="649.51" rx="49.74" ry="45.34" transform="translate(-40.58 32.68) rotate(-3.67)"/>
      </g>
      <g>
        <circle class="cls-14" cx="459.08" cy="630.62" r="8.56"/>
        <path class="cls-2" d="M457.93,625.64c-1.18-.16-2.53.4-3.52,1.46-1.15,1.23-1.63,2.95-1.19,4.28"/>
      </g>
      <g>
        <circle class="cls-14" cx="410.32" cy="640.84" r="8.56"/>
        <path class="cls-2" d="M409.16,635.86c-1.18-.16-2.53.4-3.52,1.46-1.15,1.23-1.63,2.95-1.19,4.28"/>
      </g>
      <path class="cls-6" d="M428.22,664.05c3.38,2.02,9.32,2.47,15.57,1.14,7.24-1.54,13.73-5.23,16.13-9.23"/>
      <circle class="cls-9" cx="485.3" cy="641.94" r="3.69"/>
      <circle class="cls-9" cx="389.86" cy="660.96" r="3.69"/>
    </g>
  </g>
  <text class="cls-11" transform="translate(573.76 669.17)"><tspan x="0" y="0">Bingo</tspan></text>
  <path class="cls-15" d="M404.6,412.94c-1.79.58-3.76,0-4.95-1.46l-11.42-14.07c-.41-.5-1.01-.81-1.65-.84l-18.1-.96c-2.51-.13-4.44-2.28-4.31-4.8.07-1.29.68-2.48,1.68-3.29l14.07-11.42c.5-.41.81-1.01.84-1.65l.95-17.97c.07-1.72,1.08-3.27,2.64-4.02,1.9-.88,4.15-.36,5.46,1.26l11.42,14.07c.41.5,1.01.81,1.65.84l18.1.96c2.51.13,4.44,2.28,4.31,4.8-.07,1.29-.68,2.48-1.68,3.29l-14.07,11.42c-.5.41-.81,1.01-.84,1.65l-.96,18.1c-.1,1.88-1.35,3.51-3.14,4.09Z"/>
  <path class="cls-15" d="M349.17,486.26c-1.63,0-3.1-.97-3.69-2.44l-4.54-11.39c-.2-.5-.61-.9-1.13-1.09l-11.8-4.38c-2.04-.76-3.05-2.96-2.27-4.93.4-1.01,1.22-1.8,2.27-2.19l11.8-4.38c.52-.19.93-.59,1.13-1.09l4.5-11.29c.52-1.35,1.77-2.32,3.25-2.52,1.8-.21,3.51.78,4.16,2.41l4.54,11.39c.2.5.61.9,1.13,1.09l11.8,4.38c2.04.76,3.05,2.96,2.27,4.93-.4,1.01-1.22,1.8-2.27,2.19l-11.8,4.38c-.52.19-.93.59-1.13,1.09l-4.54,11.39c-.59,1.47-2.05,2.44-3.69,2.44Z"/>
  <path class="cls-15" d="M1374.51,744.85c-5.2.03-9.87-3.18-11.73-8.04l-20.01-52.05c-.82-2.12-2.5-3.8-4.62-4.62l-52.06-20.03c-6.48-2.49-9.71-9.75-7.23-16.23,1.28-3.32,3.9-5.95,7.23-7.23l52.05-20.01c2.12-.82,3.8-2.5,4.62-4.62l20.03-52.06c2.49-6.48,9.75-9.71,16.23-7.23,3.32,1.28,5.95,3.9,7.23,7.23l20.01,52.05c.82,2.12,2.5,3.8,4.62,4.62l51.75,19.91c5.06,1.87,8.4,6.72,8.35,12.11-.08,5.11-3.26,9.65-8.04,11.46l-52.05,20.01c-2.12.82-3.8,2.5-4.62,4.62l-20.03,52.06c-1.85,4.86-6.52,8.06-11.73,8.04ZM1408.1,616.82h0Z"/>
  <path class="cls-15" d="M1314.23,557.71c-3.05,0-5.78-1.88-6.88-4.72l-8.47-22.02c-.37-.97-1.14-1.74-2.12-2.12l-22.02-8.47c-3.8-1.46-5.69-5.73-4.23-9.53.75-1.94,2.29-3.48,4.23-4.23l22.02-8.47c.97-.37,1.74-1.14,2.12-2.12l8.39-21.83c.96-2.62,3.3-4.49,6.06-4.86,3.35-.41,6.55,1.52,7.77,4.67l8.47,22.02c.37.97,1.14,1.74,2.12,2.12l22.02,8.47c3.8,1.46,5.69,5.73,4.23,9.53-.75,1.94-2.29,3.48-4.23,4.23l-22.02,8.47c-.97.37-1.74,1.14-2.12,2.12l-8.47,22.02c-1.1,2.85-3.83,4.72-6.88,4.72Z"/>
  <path class="cls-15" d="M1470.97,597.9c-3.33,0-6.31-2.05-7.5-5.15l-11.47-29.83c-.41-1.06-1.25-1.9-2.31-2.31l-29.83-11.47c-4.14-1.6-6.21-6.25-4.61-10.39.82-2.12,2.49-3.79,4.61-4.61l29.83-11.47c1.06-.41,1.9-1.25,2.31-2.31l11.39-29.62c1.06-2.85,3.6-4.89,6.62-5.31,3.66-.44,7.15,1.66,8.47,5.1l11.47,29.83c.41,1.06,1.25,1.9,2.31,2.31l29.83,11.47c4.14,1.6,6.21,6.25,4.61,10.39-.82,2.12-2.49,3.79-4.61,4.61l-29.83,11.47c-1.06.41-1.9,1.25-2.31,2.31l-11.47,29.83c-1.19,3.1-4.17,5.15-7.5,5.15Z"/>
  <path class="cls-15" d="M406.3,540.29c-1.21,0-2.3-.75-2.74-1.88l-3.37-8.77c-.15-.39-.45-.69-.84-.84l-8.77-3.37c-1.51-.58-2.27-2.28-1.68-3.8.3-.77.91-1.39,1.68-1.68l8.77-3.37c.39-.15.69-.45.84-.84l3.34-8.7c.38-1.04,1.31-1.79,2.42-1.94,1.34-.16,2.61.6,3.09,1.86l3.37,8.77c.15.39.45.69.84.84l8.77,3.37c1.51.58,2.27,2.28,1.68,3.8-.3.77-.91,1.39-1.68,1.68l-8.77,3.37c-.39.15-.69.45-.84.84l-3.37,8.77c-.44,1.13-1.53,1.88-2.74,1.88Z"/>
</svg>