<?xml version="1.0" encoding="UTF-8"?>
<svg id="Layer_1" data-name="Layer 1" xmlns="http://www.w3.org/2000/svg" xmlns:xlink="http://www.w3.org/1999/xlink" viewBox="0 0 172.6 126.81">
  <defs>
    <style>
      .cls-1 {
        fill: url(#New_Gradient_Swatch_2-4);
      }

      .cls-2 {
        fill: url(#New_Gradient_Swatch_2-3);
      }

      .cls-3 {
        fill: url(#New_Gradient_Swatch_2-8);
      }

      .cls-4 {
        fill: url(#New_Gradient_Swatch_2-7);
      }

      .cls-5 {
        fill: url(#New_Gradient_Swatch_2-6);
      }

      .cls-6 {
        fill: url(#New_Gradient_Swatch_2-5);
      }

      .cls-7 {
        fill: url(#New_Gradient_Swatch_2-2);
      }

      .cls-8 {
        fill: url(#linear-gradient-2);
      }

      .cls-9 {
        fill: url(#linear-gradient);
      }

      .cls-10 {
        fill: #fff;
      }

      .cls-11 {
        fill: #294921;
      }

      .cls-12 {
        fill: url(#New_Gradient_Swatch_2);
      }

      .cls-13 {
        fill: #317338;
      }
    </style>
    <linearGradient id="New_Gradient_Swatch_2" data-name="New Gradient Swatch 2" x1="15.44" y1="22.26" x2="15.44" y2="62.59" gradientUnits="userSpaceOnUse">
      <stop offset="0" stop-color="#faa51a"/>
      <stop offset="0" stop-color="#f9a41a"/>
      <stop offset=".11" stop-color="#f47d1f"/>
      <stop offset=".17" stop-color="#f36f21"/>
      <stop offset=".27" stop-color="#e85522"/>
      <stop offset=".44" stop-color="#d32027"/>
      <stop offset=".71" stop-color="#d22127"/>
      <stop offset=".75" stop-color="#c41f24"/>
      <stop offset=".85" stop-color="#a71c1f"/>
      <stop offset=".93" stop-color="#951a1d"/>
      <stop offset="1" stop-color="#8f1a1c"/>
    </linearGradient>
    <linearGradient id="New_Gradient_Swatch_2-2" data-name="New Gradient Swatch 2" x1="49.54" x2="49.54" y2="62.66" xlink:href="#New_Gradient_Swatch_2"/>
    <linearGradient id="New_Gradient_Swatch_2-3" data-name="New Gradient Swatch 2" x1="80.06" y1="22.38" x2="80.06" y2="62.65" xlink:href="#New_Gradient_Swatch_2"/>
    <linearGradient id="New_Gradient_Swatch_2-4" data-name="New Gradient Swatch 2" x1="113.63" y1="22.33" x2="113.63" xlink:href="#New_Gradient_Swatch_2"/>
    <linearGradient id="New_Gradient_Swatch_2-5" data-name="New Gradient Swatch 2" x1="49.73" y1="66.18" x2="49.73" y2="107.83" xlink:href="#New_Gradient_Swatch_2"/>
    <linearGradient id="New_Gradient_Swatch_2-6" data-name="New Gradient Swatch 2" x1="106.18" y1="68.43" x2="106.18" y2="110.16" xlink:href="#New_Gradient_Swatch_2"/>
    <linearGradient id="New_Gradient_Swatch_2-7" data-name="New Gradient Swatch 2" x1="124.11" y1="95.65" x2="124.11" y2="138.52" gradientTransform="translate(22.03 -40.75) rotate(5.06)" xlink:href="#New_Gradient_Swatch_2"/>
    <linearGradient id="linear-gradient" x1="150.49" y1=".18" x2="150.49" y2="62.6" gradientUnits="userSpaceOnUse">
      <stop offset="0" stop-color="#ffc60b"/>
      <stop offset=".14" stop-color="#fcb512"/>
      <stop offset=".26" stop-color="#faa51a"/>
      <stop offset=".35" stop-color="#f47a1f"/>
      <stop offset=".38" stop-color="#f36f21"/>
      <stop offset=".5" stop-color="#de3d24"/>
      <stop offset=".58" stop-color="#d32027"/>
      <stop offset=".71" stop-color="#d22127"/>
      <stop offset=".79" stop-color="#ce2026"/>
      <stop offset=".85" stop-color="#c31f24"/>
      <stop offset=".92" stop-color="#b21d21"/>
      <stop offset=".98" stop-color="#991b1d"/>
      <stop offset="1" stop-color="#8f1a1c"/>
    </linearGradient>
    <linearGradient id="linear-gradient-2" x1="61.6" y1="69.64" x2="61.6" y2="109.72" gradientTransform="translate(-6.31 20.86) rotate(-7.86)" gradientUnits="userSpaceOnUse">
      <stop offset="0" stop-color="#f36f21"/>
      <stop offset=".03" stop-color="#ec5f22"/>
      <stop offset=".12" stop-color="#de3d24"/>
      <stop offset=".19" stop-color="#d62726"/>
      <stop offset=".24" stop-color="#d32027"/>
      <stop offset=".35" stop-color="#d22127"/>
      <stop offset=".53" stop-color="#a71c20"/>
      <stop offset=".63" stop-color="#8f1a1c"/>
      <stop offset=".9" stop-color="#50151a"/>
    </linearGradient>
    <linearGradient id="New_Gradient_Swatch_2-8" data-name="New Gradient Swatch 2" x1="19.65" y1="66.51" x2="19.65" y2="108.29" xlink:href="#New_Gradient_Swatch_2"/>
  </defs>
  <g>
    <g>
      <path class="cls-12" d="M30.7,27.97l.18,28.37c0,3.43-2.25,6.25-4.98,6.25-3.14,0-6.16-1.86-8.12-4.93l-6.54-10.56c-.34-.54-1.17-.3-1.17.34v9.44c0,3.19-2.01,5.71-4.56,5.71-3.02,0-5.51-3.07-5.51-6.91v-24.89c0-4.63,3.02-8.42,6.76-8.42,2.84,0,5.45,1.86,6.87,4.93l6,12.78c.29.61,1.19.41,1.2-.27l.14-11.67c.06-3.25,2.25-5.89,4.86-5.89h.24c2.55,0,4.62,2.52,4.62,5.71Z"/>
      <path class="cls-10" d="M29.13,25.46c-.65-1.21-2.27-2.62-3.75-2.14-.16.05-.28.19-.34.37,0,0,0,0,0,0-.11.37.14.73.47.68.79-.1,1.53-.03,2.85,1.78.19.27.56.24.73-.06l.03-.05c.1-.18.11-.41.01-.58Z"/>
      <path class="cls-10" d="M24.21,23.65c-.26-.2-.65-.1-.84.15-.19.24-.13.58.13.78.26.19.65.15.84-.1.19-.29.13-.63-.13-.83Z"/>
    </g>
    <path class="cls-7" d="M62.1,27.37v.18c0,3.43-2.25,6.19-4.98,6.07-2.31-.06-4.86-.6-6.4-.96-.71-.18-1.42.48-1.42,1.44v.06c0,.84.53,1.5,1.13,1.62l6.04.96c1.54.24,2.73,1.92,2.73,3.91v.36c0,1.8-1.01,3.37-2.43,3.73l-6.34,1.44c-.77.18-1.3,1.02-1.3,1.98v.3c0,1.2.95,2.04,1.84,1.56,3.14-1.56,6.16-1.14,8.24-.36,1.72.66,2.9,2.65,2.9,4.93v2.1c0,3.19-2.07,5.83-4.62,5.83l-14.81.12c-3.14.06-5.69-3.13-5.69-7.03v-25.07c0-4.45,2.9-8.11,6.46-8.11l14.58-.18c2.25,0,4.09,2.28,4.09,5.11Z"/>
    <g>
      <path class="cls-2" d="M94.93,28.45v16.89c0,9.56-6.16,17.31-13.81,17.31h-2.37c-7.47,0-13.57-7.63-13.57-16.95v-17.37c0-3.31,2.19-6.01,4.86-5.95,2.84,0,5.16,2.89,5.16,6.49v14.73c0,2.95,1.9,5.29,4.21,5.29h1.42c2.19,0,4.03-2.22,4.03-4.99v-14.97c0-3.61,2.31-6.55,5.27-6.55,2.67,0,4.8,2.71,4.8,6.07Z"/>
      <path class="cls-10" d="M70.61,23.84s-.02.01-.03.02c-.23.17-.2.44.07.54.93.34,1.73.69,2.49,2.82.07.2.38.28.64.17h.03c.18-.09.29-.25.26-.39-.22-1.12-1.35-2.85-2.99-3.26-.15-.04-.34,0-.46.1Z"/>
      <path class="cls-10" d="M70.1,23.65c-.04-.25-.25-.39-.5-.32-.21.04-.34.25-.29.46.04.25.25.39.46.35.21-.07.38-.28.34-.49Z"/>
      <path class="cls-10" d="M90.53,23.71s-.02.01-.03.02c-.22.16-.18.43.07.52.88.34,1.64.68,2.37,2.76.07.19.36.28.6.17h.03c.17-.09.27-.24.24-.38-.22-1.09-1.29-2.78-2.85-3.18-.15-.04-.32,0-.44.1Z"/>
      <path class="cls-10" d="M89.99,23.52c-.04-.24-.25-.38-.5-.31-.21.03-.33.24-.29.45.04.24.25.38.46.35.21-.07.38-.28.33-.49Z"/>
    </g>
    <path class="cls-1" d="M120.95,62.59c-2.67,0-5.1-2.1-5.98-5.23l-2.56-8.59c-.07-.22-.28-.37-.5-.34,0,0,0,0,0,0-.24.03-.43.23-.43.48v7.37c0,3.49-2.25,6.31-5.04,6.31-3.14,0-5.69-3.19-5.69-7.09v-27.35c0-3.19,2.07-5.77,4.62-5.77h3.36s.02,0,.03,0c.56-.04,17.76-1.23,17.76,11.36,0,6.13-2.12,10.44-6.75,12.78-.23.12-.34.39-.23.63l4.25,9.37c1.19,2.7-.36,6.07-2.84,6.07ZM118.04,34.94c0-3.67-2.84-4.87-4.8-5.29-.95-.18-1.78.66-1.78,1.8v6.73c0,1.32.95,2.46,2.01,2.34,1.96-.18,4.56-1.26,4.56-5.59Z"/>
    <path class="cls-6" d="M63.04,77.98c0,9.21-4.54,14.42-14.91,15.2-.34.03-.6.31-.6.65v7.47c0,3.61-2.39,6.53-5.27,6.53-3.19,0-5.82-3.3-5.82-7.34v-28.29c0-3.3,2.15-5.97,4.78-5.97h3.47s.03,0,.04,0c.68-.05,18.31-1.24,18.31,11.75ZM54.27,79.23c0-3.79-2.94-5.04-4.97-5.47-.92-.19-1.78.68-1.78,1.86v6.96c0,1.37.92,2.55,2.08,2.43,1.96-.19,4.66-1.31,4.66-5.78Z"/>
    <g>
      <path class="cls-5" d="M119.64,103.01c-1.96,3.3-5.7,7.15-12.81,7.15-12.44,0-15.57-15.3-15.39-20.52.12-5.22.12-21.21,15.39-21.21,8.58,0,12.14,3.79,13.61,7.09,1.04,2.36.37,5.29-1.47,6.59l-1.9,1.43c-1.47,1.06-3.31.68-4.41-.93-1.1-1.62-2.94-3.11-5.82-2.3-7.23,1.99-6.07,13.18,0,14.55,2.76.62,5.03-1.06,6.5-2.67,1.17-1.31,3-1.18,4.05.31l1.96,2.86c1.53,2.18,1.65,5.35.31,7.65Z"/>
      <path class="cls-10" d="M111.1,97.08l.12.21c.09.16.3.23.53.17,1.45-.39,3.72-1.93,4.17-3.93.03-.13-.02-.26-.13-.34,0,0,0,0,0,0-.27-.2-.75-.03-.88.3-.39,1.01-.92,1.88-3.49,2.97-.29.12-.44.42-.32.63Z"/>
      <path class="cls-10" d="M115.21,73.41c1.1.46,2.06,1.03,3.02,4.31.12.4.58.58.93.36h0c.21-.13.32-.38.28-.63-.26-1.86-1.69-4.7-3.78-5.29-.24-.07-.51.02-.66.23-.02.02-.03.04-.04.05-.25.33-.12.81.26.96Z"/>
      <path class="cls-10" d="M110.46,97.34c0-.37-.31-.68-.61-.68s-.61.31-.61.75c.06.37.31.68.61.68s.61-.31.61-.75Z"/>
      <path class="cls-10" d="M114.04,71.93c0-.33-.31-.61-.63-.61s-.63.28-.63.67c.06.33.31.61.63.61s.63-.28.63-.67Z"/>
      <path class="cls-10" d="M57.86,23.93c.69.06,1.33.21,2.5,2.03.14.22.43.24.58.03h0c.09-.12.1-.3.03-.44-.51-1.08-1.84-2.53-3.11-2.47-.15,0-.27.12-.32.27,0,.02,0,.03-.01.04-.07.25.09.52.33.54Z"/>
      <path class="cls-10" d="M56.72,23.18c-.13-.22-.45-.28-.66-.15s-.31.44-.15.7c.18.2.45.28.66.15s.31-.44.15-.7Z"/>
    </g>
    <path class="cls-4" d="M150.15,76.15l-7.94,13.21c-.06.1-.09.22-.09.34v13.25c0,3.05-2.58,5.47-5.64,5.47-3.25-.06-5.82-2.61-5.82-5.72v-13.43c0-.12-.03-.24-.1-.34l-7.75-12.78c-1.29-2.24-.43-5.91,2.02-8.21,2.64-2.42,5.89-2.49,7.36-.06l3.74,6.24c.25.42.85.42,1.1,0l3.8-6.24c1.41-2.42,4.72-2.36,7.36.06,2.45,2.3,3.31,5.97,1.96,8.21Z"/>
    <g>
      <path class="cls-9" d="M150.43,62.59c-12.31-.25-20.41-11.25-21.71-18.81-.22-1.29-.34-2.62-.34-3.98,0-6,2.24-11.46,5.91-15.53h0c.81-.68,1.57-1.41,2.27-2.2h0c3.66-4.07,5.91-9.53,5.91-15.53,0-2.21-.3-4.34-.87-6.37,0,0,0,0,0,0,1.97.79,4.29,2.02,6.55,3.97.63.54,3.06,2.61,4.97,5.58.36.56,1.92,3.03,3.22,7.54,1.18,6.01-.04,16.82,9.36,14.71,2.3-1.19,3.65-3.76,3.36-6.42,10.91,20.78-5.81,37.3-18.64,37.04ZM158.11,41.88c.06-1.97-.54-3.99-1.93-5.88-1.03-1.48-2.48-2.77-4.6-3.72-2.6-1.18-5.5-1.18-8.1-.04-1.94.83-3.33,1.97-4.35,3.3-3.08,4.21-3.08,8.47-.06,12.72.85,1.25,2.12,2.35,3.87,3.19,2.96,1.48,6.29,1.48,9.19-.04,1.33-.68,2.42-1.52,3.26-2.51,1.93-2.13,2.72-4.48,2.72-7.02Z"/>
      <path class="cls-10" d="M163.03,54.6c-.18-.14-.45-.07-.58.11-.13.18-.09.43.09.57.22.14.45.11.63-.07.13-.22.09-.47-.13-.61Z"/>
    </g>
    <g>
      <g>
        <path class="cls-8" d="M49.84,126.5c1.66.27,4.11.5,7.01.04,1.82-.29,4.25-1.06,8.25-3.08,4.96-2.51,8.95-6.09,12.8-10.13,4.02-4.22,7.5-9.59,8.92-15.33.72-2.92,1.17-5.33.48-8.27-.47-2.01-.68-5.35-2.69-6.38-1.07-1.96-4.95-.35-6.73-.34-1.34.01-2.56-.76-3.79-1.34,0-.38-.2-.76-.64-.96-1.33-.62-3.31-.39-3.82,1.1-.56.23-1.07.65-1.42,1.08-1.25,1.59-.96,4.04-.94,5.94.05,4.95-.03,10-1.82,14.67-1.75,4.58-4.15,9.08-7.44,12.71-1.48,1.64-3.22,3.09-5.14,4.18-1.73.98-3.75,1.58-4.52,3.62-.2.53-.1.93-.08,1.02.23.97,1.34,1.4,1.54,1.48Z"/>
        <path class="cls-11" d="M73.7,68.06c-.55-.06-1.1-.04-1.56-.39-.35-.27-.52-.58-.58-.91-.35-.58-.32-1.34.33-1.76.05-.13.1-.27.14-.4.15-.46.71-.33.89.02,3.3-.81,7.26.91,8.91,3.95.94,1.73,1.05,3.71.71,5.63-.44,2.48-2.3,5.4.2,7.4.65.52.28,1.51-.47,1.63-1.78.28-3.75.12-5.55,0-1.27-.08-2.35-.22-3.17-1.31-.32-.43-.26-1.21.23-1.5,3.08-1.87,6.92-8.52,3.45-11.26-.84-.66-2.49-1-3.52-1.11Z"/>
        <path class="cls-13" d="M74.79,65.93c.21-.14.46-.19.71-.15.29.05.49.24.62.5.15.28-.11.64-.39.66-.12,0-.24,0-.36-.01-.05.02-.1.03-.15.05-.18.04-.38-.08-.48-.22-.05-.07-.09-.14-.12-.22-.08-.2-.01-.48.17-.61Z"/>
        <path class="cls-13" d="M73.71,65.42c.04-.1.13-.16.24-.17.08-.01.16.01.22.06.02.02.04.04.06.07,0,.01.02.02.03.03.03.04.04.08.05.13,0,.05,0,.09-.02.14-.04.09-.12.14-.21.16-.01,0-.03,0-.04,0-.03,0-.05,0-.09,0-.05,0-.1-.03-.14-.06-.02-.02-.04-.04-.06-.06-.03-.04-.05-.09-.06-.14,0-.05,0-.1.02-.15Z"/>
      </g>
      <g>
        <path class="cls-10" d="M83.65,85.67c-.73.22-1.07-.93-.34-1.15s1.07.93.34,1.15h0Z"/>
        <path class="cls-10" d="M84.77,86.8c1.04,2.88,1.11,6.09.2,9.01-.28.9-1.7.55-1.42-.36.84-2.7.78-5.58-.18-8.24-.32-.9,1.08-1.31,1.4-.42h0Z"/>
      </g>
    </g>
    <path class="cls-3" d="M18.48,108.29c-3.53-.12-7.13-1.38-10.22-4.1-.92-.81-1.64-1.75-2.08-2.89-.8-2.19-.16-4.55,1.56-5.85,1.68-1.3,4.05-1.3,5.89,0,.4.33.72.69,1.08,1.02,1.92,1.67,4.05,2.07,6.45,1.34.76-.24,1.4-.69,1.88-1.34.6-.73.6-1.3-.08-1.95-.56-.57-1.28-.93-2-1.26-1.24-.49-2.52-.97-3.77-1.5-1.88-.73-3.69-1.67-5.29-2.93-3.77-3.01-5.57-6.99-5.01-11.83.6-5.28,4.69-9.35,10.02-10.24,4.33-.73,8.33.24,12.1,2.44,1.48.89,2.64,2.11,3.53,3.58.48.81.84,1.63.88,2.56.16,1.99-.6,3.54-2.28,4.51-1.6.89-3.61.65-5.09-.57-.28-.2-.56-.49-.8-.77-1.84-2.19-4.25-2.52-6.81-1.99-1.88.37-2.36,2.11-1.2,3.62.52.69,1.24,1.1,1.96,1.5,1.36.65,2.72,1.14,4.13,1.67,1.76.69,3.49,1.46,5.01,2.6,3.65,2.72,5.57,6.34,5.05,11.01-.44,3.86-2.56,6.67-5.65,8.82-2.64,1.79-5.61,2.56-9.26,2.56Z"/>
  </g>
  <path class="cls-10" d="M145.54,69.56c1.1.46,2.06,1.03,3.02,4.31.12.4.58.58.93.36h0c.21-.13.32-.38.28-.63-.26-1.86-1.69-4.7-3.78-5.29-.24-.07-.51.02-.66.23-.02.02-.03.04-.04.05-.25.33-.12.81.26.96Z"/>
  <g>
    <path class="cls-10" d="M136.31,27.28c.58.5,1.35-.41.77-.91s-1.35.41-.77.91h0Z"/>
    <path class="cls-10" d="M134.84,27.86c-2.1,2.21-3.44,5.12-3.77,8.17-.1.94,1.33,1.21,1.44.26.31-2.81,1.51-5.42,3.45-7.47.65-.69-.46-1.64-1.11-.96h0Z"/>
  </g>
  <path class="cls-10" d="M121.55,27.85c.81.25,1.52.6,2.43,3.07.11.3.45.4.68.19h0c.14-.12.19-.33.15-.52-.31-1.42-1.52-3.5-3.04-3.75-.18-.03-.36.07-.45.24,0,.02-.02.03-.03.05-.15.28-.03.64.25.73Z"/>
  <path class="cls-10" d="M120.4,26.13c-.13-.23-.46-.29-.67-.16s-.32.44-.16.7c.17.2.46.29.67.16s.32-.44.16-.7Z"/>
  <path class="cls-10" d="M156.36,59.82c1.71-.07,4.71-1.31,5.91-3.57.13-.24.13-.5.02-.67,0,0,0-.01-.01-.02-.22-.33-.78-.21-1.08.23-.74,1.08-1.6,2.02-4.62,2.68-.44.1-.8.59-.7.99v.02c.06.22.24.35.48.34Z"/>
  <path class="cls-10" d="M13.79,70.63c-1.06.25-2,.64-3.38,3.72-.17.38-.61.47-.88.18h0c-.16-.17-.22-.43-.15-.67.53-1.79,2.25-4.35,4.22-4.55.23-.02.45.12.56.35.01.02.02.04.03.06.17.37-.02.82-.38.91Z"/>
  <path class="cls-10" d="M15.23,68.85c.1-.33.5-.51.81-.41s.54.47.41.86c-.17.31-.5.51-.82.41s-.54-.47-.41-.86Z"/>
  <path class="cls-10" d="M56.74,71.3c1.07.36,2,.85,3.14,4.16.14.4.59.54.9.27h0c.19-.16.27-.43.22-.68-.38-1.9-1.92-4.7-3.93-5.09-.23-.05-.48.08-.61.31-.01.02-.02.04-.03.06-.21.37-.05.85.31.97Z"/>
  <path class="cls-10" d="M55.49,68.8c-.2-.34-.69-.44-1.01-.25s-.48.66-.24,1.06c.26.3.69.44,1.01.25s.48-.66.24-1.06Z"/>
  <path class="cls-10" d="M11.7,26.34c-.81-1.29-2.81-2.81-4.62-2.33-.19.05-.34.19-.4.38,0,0,0,0,0,0-.12.39.19.77.59.73.96-.09,1.87,0,3.5,1.94.24.29.69.26.89-.05l.04-.06c.12-.19.12-.43,0-.62Z"/>
  <path class="cls-10" d="M5.84,24.12c-.26-.2-.65-.1-.85.15-.2.24-.13.58.13.78.26.19.65.15.85-.1.2-.29.13-.63-.13-.83Z"/>
  <path class="cls-10" d="M56.83,51.8c.84.07,1.61.26,3.04,2.47.17.27.52.29.7.04h0c.11-.15.12-.36.04-.54-.62-1.32-2.24-3.08-3.78-3.01-.18,0-.33.14-.39.33,0,.02-.01.04-.01.05-.09.31.11.63.4.65Z"/>
  <path class="cls-10" d="M55.45,50.89c-.16-.27-.55-.34-.81-.19s-.37.53-.18.85c.21.24.55.34.81.19s.37-.53.18-.85Z"/>
</svg>